<?xml version="1.0" standalone="no"?>
<!DOCTYPE svg PUBLIC "-//W3C//DTD SVG 20010904//EN"
 "http://www.w3.org/TR/2001/REC-SVG-20010904/DTD/svg10.dtd">
<svg version="1.0" xmlns="http://www.w3.org/2000/svg"
 width="200.000000pt" height="200.000000pt" viewBox="0 0 200.000000 200.000000"
 preserveAspectRatio="xMidYMid meet">

<g transform="translate(0.000000,200.000000) scale(0.100000,-0.100000)"
fill="#000000" stroke="none">
<path d="M277 1886 c-62 -17 -116 -61 -147 -122 l-25 -48 -3 -685 c-2 -473 1
-701 8 -738 15 -70 62 -131 125 -163 l50 -25 715 0 715 0 50 25 c63 32 110 93
125 163 7 37 10 265 8 738 -3 634 -4 687 -21 724 -24 54 -63 93 -117 119 -44
21 -55 21 -740 23 -545 2 -705 -1 -743 -11z m403 -299 c0 -2 -11 -31 -25 -65
-14 -34 -25 -66 -25 -72 0 -6 64 -10 178 -10 203 -1 212 -4 212 -69 l0 -41
-105 0 -105 0 0 -144 0 -144 101 -4 c92 -3 103 -5 120 -27 10 -13 19 -38 19
-57 l0 -34 -125 0 -125 0 -5 -27 c-22 -107 -59 -234 -84 -287 -59 -122 -151
-196 -243 -196 -72 0 -73 10 -8 73 112 108 187 247 209 386 l8 50 -137 3 -138
3 12 34 c20 60 52 75 171 79 l105 4 0 144 0 144 -46 0 c-43 0 -46 -2 -60 -37
-9 -21 -26 -49 -37 -61 -28 -31 -89 -62 -121 -62 l-25 0 33 73 c18 40 45 111
59 158 31 100 59 145 107 170 30 16 80 26 80 16z m920 -597 l0 -450 -97 0 -97
0 -87 -55 c-48 -30 -89 -55 -92 -55 -2 0 -8 25 -12 55 l-6 55 -65 0 -64 0 0
450 0 450 260 0 260 0 0 -450z m-663 -301 c61 -90 68 -106 67 -148 0 -25 -9
-61 -18 -80 l-18 -34 -77 119 c-42 65 -87 136 -99 156 l-23 37 42 30 c23 17
45 28 50 26 4 -3 38 -51 76 -106z"/>
<path d="M1200 985 l0 -335 35 0 c30 0 35 -4 42 -30 l8 -31 41 30 c30 23 53
31 95 33 l54 3 3 333 2 332 -140 0 -140 0 0 -335z"/>
</g>
</svg>
